<svg width="331" height="692" viewBox="0 0 331 692" fill="none" xmlns="http://www.w3.org/2000/svg">
<path d="M94.723 122.371C91.688 142.468 86.9831 160.234 85.2841 178.525C84.195 190.336 83.8319 202.278 82.1039 213.957C79.6353 229.976 73.0426 244.627 67.3066 259.524C62.3258 272.413 58.405 285.33 59.1456 299.733C59.9588 315.752 53.8744 330.781 52.2625 346.509C52.0405 347.861 51.4005 349.109 50.4328 350.077C48.8131 351.155 46.8499 351.586 44.9292 351.285C43.2593 351.213 42.0249 350.252 41.0084 350.616C39.6434 351.111 39.0045 353.528 37.5524 354.984C36.2587 356.058 34.655 356.686 32.9781 356.776C29.8125 357.169 30.3933 354.213 28.3603 354.446C27.1986 354.577 25.1511 357.533 24.1056 358.523C22.2614 359.98 19.3426 358.625 17.7162 357.62C14.2601 355.48 16.8013 351.111 15.4654 350.339C14.1294 349.567 12.198 352.276 9.96176 350.994C5.46013 348.431 2.45421 348.81 6.11359 339.839C7.99186 335.453 9.61137 330.96 10.9637 326.383C11.4139 325.13 12.5611 323.077 11.835 321.897C10.8476 320.893 9.40994 322.815 8.20467 323.077C5.53274 323.66 2.7882 324.14 0.842338 321.621C-1.10352 319.101 0.624518 316.844 1.4958 314.5C5.85221 302.762 11.8205 292.131 21.4336 284.369C26.0224 280.655 26.3999 275.325 26.9808 269.981C29.0864 250.335 31.0613 230.661 33.3266 211.03C33.7847 206.262 34.8686 201.576 36.5504 197.093C43.9418 178.744 45.8441 159.375 45.5391 139.832C45.2342 120.288 49.518 101.662 51.58 82.5993C52.1028 77.7935 52.3496 73.0169 52.5239 68.2257C53.3661 43.7017 65.2882 25.9932 87.5494 19.5855C103.32 15.1001 117.42 6.47884 132.929 1.58568C134.233 1.2215 135.413 0.506363 136.341 -0.482254C138.302 -2.88513 137.271 -22.1082 134.889 -24.1616C125.421 -32.4188 121.152 -43.3555 120.266 -55.9525C119.177 -71.4038 116.491 -86.7968 119.191 -102.408C123.432 -126.524 142.687 -144 165.791 -144C187.921 -144 208.077 -126.102 211.91 -102.656C215.032 -83.724 212.578 -64.8941 209.137 -46.2827C207.554 -37.7634 202.878 -30.7877 197.011 -24.7587C194.383 -22.05 192.728 -3.59872 194.775 -0.525955C196.227 1.73131 198.856 2.03714 201.077 2.7944C216.688 8.16814 231.456 15.901 247.183 21.1437C267.992 28.1048 277.939 45.3036 278.607 68.182C279.086 84.3905 282.237 100.22 284.299 116.094C285.178 122.531 285.566 129.025 285.461 135.521C284.938 155.778 286.754 175.453 293.913 194.574C299.271 208.86 299.518 224.428 301.173 239.573C302.379 251.092 303.497 262.612 304.644 274.131C304.774 276.079 305.301 277.98 306.192 279.716C307.084 281.452 308.321 282.986 309.828 284.223C319.078 291.956 325.075 302.194 329.388 313.655C330.332 316.174 332.191 318.024 330.1 320.936C328.009 323.849 326.803 323.179 323.928 322.99C321.053 322.8 318.933 317.499 319.209 320.689C321.242 326.514 322.912 334.8 325.279 340.698C328.096 347.688 324.291 351.795 320.922 352.159C317.553 351.883 317.292 350.15 315.738 350.965C314.925 351.402 315.738 353.761 315.419 354.839C314.184 358.887 311.222 359.382 307.911 358.727C305.007 358.159 304.397 354.154 302.945 354.154C301.028 354.154 299.445 357.315 297.136 357.14C291.531 356.703 290.965 349.713 289.876 349.509C287.973 349.145 288.336 351.635 283.443 351.795C277.358 351.97 278.447 342.854 277.387 337.655C275.195 326.907 273.597 316.029 271.767 305.194C271.388 303.83 271.216 302.415 271.259 301C274.164 281.966 266.278 265.597 259.642 249.025C252.018 229.831 247.183 210.185 246.573 189.142C246.05 170.21 241.665 151.686 238.165 133.133C237.72 129.933 236.956 126.786 235.885 123.74C233.707 133.744 231.151 143.676 229.423 153.768C224.338 183.937 224.083 214.727 228.668 244.976C233.794 280.014 238.02 315.038 235.609 350.528C233.213 385.479 229.801 420.43 219.476 453.925C215.584 466.566 215.846 479.017 218.474 491.556C223.832 517.085 220.42 542.045 215.671 567.181C211.489 589.331 205.303 610.957 201.789 633.282C200.337 642.02 202.66 648.835 207.133 655.418C210.879 660.908 215.134 666.005 218.75 671.612C223.658 679.345 223.644 682.49 218.982 686.379C217.893 687.282 214.728 685.956 213.174 686.379C212.128 686.641 213.174 689.102 209.137 689.422C207.685 689.539 206.436 688.214 204.94 688.432C203.444 688.65 203.067 690.5 200.163 690.762C198.507 690.908 196.765 689.466 195.08 689.583C193.396 689.699 192.96 691.228 189.94 691.461C187.21 691.68 185.583 688.549 182.984 688.549C180.385 688.549 179.528 692.015 174.692 692.015C167.504 692.015 167.126 688.796 165.732 688.985C163.816 689.233 163.859 691.548 159.503 691.709C151.269 692.029 152.634 689.015 149.091 689.044C146.782 689.044 146.187 691.461 141.83 691.243C138.926 691.097 138.926 689.568 137.111 689.466C135.296 689.364 134.032 690.922 131.302 690.675C128.572 690.427 128.558 688.709 126.946 688.432C125.334 688.155 124.405 689.888 120.89 688.927C119.627 688.636 119.25 686.816 117.986 686.495C116.941 686.219 114.632 687.369 112.178 686.364C108.852 685.039 108.083 681.777 109.927 676.942C111.677 672.263 114.288 667.956 117.623 664.243C128.296 652.491 131.607 639.166 127.614 623.044C122.43 602.03 117.681 580.812 113.862 559.477C109.796 536.817 107.589 514.172 112.584 491.337C115.507 477.77 114.836 463.671 110.638 450.445C102.579 423.692 99.3843 395.906 96.7705 368.018C95.6378 355.902 94.8827 343.756 94.418 331.611C93.7776 313.513 94.9255 295.396 97.8451 277.524C103.029 245.078 106.558 212.588 104.786 179.618C104.446 170.586 103.329 161.602 101.446 152.764C99.3117 143.312 97.2933 133.744 94.723 122.371Z" fill="#E6E6E6"/>
<path d="M212.099 679.826C211.914 679.703 211.688 679.659 211.47 679.703C211.253 679.746 211.061 679.874 210.937 680.059C209.747 681.864 211.489 685.112 208.643 685.884C205.797 686.656 205.158 683.874 203.996 681.952C203.914 681.812 203.795 681.699 203.651 681.624C203.508 681.55 203.346 681.518 203.185 681.532C203.024 681.545 202.871 681.604 202.742 681.702C202.613 681.799 202.514 681.931 202.457 682.083C201.774 684.078 202.529 686.656 199.683 687.034C195.414 687.617 196.227 683.059 194.078 680.845C193.976 680.737 193.847 680.657 193.705 680.612C193.563 680.568 193.412 680.56 193.267 680.591C193.121 680.622 192.986 680.689 192.874 680.787C192.762 680.885 192.676 681.01 192.626 681.151C191.827 683.816 192.379 687.675 188.487 688.068C187.268 688.199 185.583 685.927 181.401 678.369C181.293 678.172 181.114 678.025 180.9 677.957C180.686 677.889 180.455 677.906 180.254 678.005C178.903 678.719 179.208 680.088 179.513 681.646C180.37 685.913 178.221 688.374 174.561 688.563C170.641 688.753 166.996 687.413 167.039 682.054C167.039 674.408 166.734 666.69 167.547 659.132C170.399 633.549 171.331 607.787 170.336 582.065C169.755 567.938 168.361 553.856 167.693 539.745C166.791 520.525 167.91 501.264 171.033 482.279C172.097 475.563 172.36 468.743 171.817 461.964C168.168 416.557 166.796 370.996 167.707 325.451C167.896 317.543 168.361 309.636 168.506 301.728C168.506 298.568 169.014 296.587 172.485 295.743C174.354 295.333 176.097 294.477 177.566 293.247C179.034 292.017 180.186 290.451 180.922 288.679C180.994 288.505 181.008 288.311 180.961 288.128C180.913 287.944 180.808 287.781 180.661 287.663C180.514 287.545 180.332 287.478 180.143 287.472C179.954 287.466 179.769 287.522 179.615 287.631C169.246 295.204 161.536 295.145 151.603 287.631C151.456 287.524 151.28 287.465 151.099 287.464C150.917 287.462 150.74 287.517 150.591 287.621C150.442 287.725 150.33 287.874 150.269 288.045C150.209 288.216 150.203 288.403 150.253 288.578C150.795 290.472 151.874 292.169 153.359 293.461C154.843 294.754 156.67 295.586 158.617 295.859C162.073 296.587 162.741 298.349 162.741 301.684C162.741 340.16 165.122 378.678 162.102 417.081C161.027 430.901 161.216 444.751 159.662 458.556C158.739 468.715 159.228 478.954 161.115 488.978C165.471 515.424 163.438 542.031 161.855 568.536C161.042 582.108 160.751 595.652 160.606 609.239C160.359 631.346 162.654 653.292 164.106 675.297C164.229 677.562 164.229 679.832 164.106 682.097C163.888 687.238 160.577 688.855 156.526 688.811C152.474 688.767 150.964 686.088 151.53 681.937C151.711 681.335 151.756 680.7 151.663 680.078C151.57 679.457 151.341 678.863 150.993 678.34C150.908 678.24 150.801 678.163 150.679 678.115C150.557 678.066 150.426 678.049 150.296 678.063C148.016 678.296 148.278 680.554 147.813 682.228C146.971 685.258 146.274 688.636 142.353 688.243C138.752 687.893 138.65 684.893 138.664 681.908C138.664 681.544 138.084 681.18 137.764 680.801C134.715 681.85 136.181 687.995 131.462 687.122C128.558 686.597 129.487 683.83 129.022 681.981C128.989 681.863 128.931 681.755 128.852 681.662C128.774 681.569 128.676 681.494 128.565 681.443C128.455 681.392 128.335 681.365 128.213 681.365C128.091 681.365 127.971 681.391 127.861 681.442C125.639 682.622 126.089 686.99 122.72 686.058C119.612 685.185 120.745 682.068 120.28 679.913C118.828 679.461 118.247 680.495 117.87 681.515C116.97 683.845 115.517 684.602 113.513 683.19C112.824 682.699 112.33 681.979 112.12 681.158C111.91 680.336 111.997 679.467 112.366 678.704C113.545 675.265 115.418 672.107 117.87 669.428C132.391 654.471 135.034 637.069 129.487 616.622C122.817 591.559 117.715 566.102 114.211 540.4C111.937 524.134 112.428 507.599 115.663 491.498C118.262 478.173 118.335 465.284 114.399 452.178C106.122 424.581 102.056 396.139 100.009 367.276C99.2099 356.019 97.54 344.82 97.4238 333.504C97.1334 306.548 100.052 279.898 104.452 253.408C109.491 222.986 109.288 192.404 106.383 161.967C105.352 151.089 102.027 140.458 99.5439 129.754C99.0074 127.543 98.7633 125.272 98.8179 122.997C98.8279 122.863 98.8687 122.733 98.9371 122.617C99.0054 122.502 99.0994 122.403 99.2119 122.33C99.3243 122.257 99.452 122.21 99.5852 122.195C99.7183 122.179 99.8533 122.194 99.9796 122.24C115.474 127.744 130.707 128.24 147.29 121.978C143.021 120.041 140.422 121.73 137.721 122.065C128.508 123.427 119.141 123.339 109.956 121.803C100.575 120.07 94.3889 115.22 93.5466 104.24C93.5841 103.398 93.4356 102.558 93.1118 101.78C92.788 101.002 92.2968 100.305 91.6734 99.7399C90.2212 100.177 90.5843 101.546 90.7876 102.318C93.808 114.259 91.1942 125.939 88.9579 137.487C84.8919 158.56 81.5084 179.72 80.6952 201.244C80.0272 218.719 73.5797 234.738 67.4227 250.758C62.6887 263.034 55.9653 275.18 56.6188 288.621C57.4465 305.689 52.7416 321.606 50.636 338.033C50.3746 339.985 49.7502 341.878 49.4888 343.858C49.1258 346.582 48.3561 349.436 45.3357 348.766C42.3152 348.096 43.0704 344.718 43.3463 342.329C43.8835 337.567 44.6967 332.849 45.4083 328.101C45.5535 327.111 45.6697 326.15 44.4063 325.422C44.2248 325.313 44.009 325.276 43.8019 325.319C43.5947 325.362 43.4113 325.482 43.2882 325.655C40.7324 329.208 41.5311 334.058 40.2532 338.106C39.326 341.647 38.5844 345.235 38.0314 348.854C37.407 351.766 36.2453 354.795 32.8473 353.587C30.0737 352.596 30.5675 349.713 31.1774 347.048C32.6295 340.742 33.8783 334.378 35.2579 328.043C35.5192 326.864 35.9258 325.728 34.7206 324.49C34.633 324.401 34.527 324.332 34.41 324.288C34.2931 324.244 34.168 324.226 34.0435 324.236C33.919 324.246 33.7981 324.282 33.6893 324.344C33.5805 324.405 33.4864 324.49 33.4136 324.592C30.8579 328.422 30.7417 333.257 29.3767 337.465C28.0117 341.674 27.213 346.203 25.9787 350.572C25.2091 353.281 24.2361 356.586 20.7365 355.509C17.5854 354.533 18.6599 351.14 19.1682 348.97C20.7365 342.111 22.6969 335.354 24.454 328.582C24.9767 326.587 26.0513 324.635 25.4705 322.189C25.4321 322.029 25.3504 321.883 25.2342 321.767C25.118 321.651 24.9721 321.57 24.8125 321.532C24.653 321.494 24.4861 321.501 24.3305 321.553C24.1749 321.605 24.0367 321.699 23.9312 321.825C20.6494 325.859 20.5768 331.276 18.384 335.558C17.0045 338.252 16.4672 341.383 15.2474 344.295C14.2745 346.305 13.0692 349.334 10.1649 348.227C7.26067 347.121 7.98673 344.237 8.87254 341.732C11.2153 335.121 13.5387 328.499 15.8428 321.868C17.7135 316.92 19.2133 311.837 20.3299 306.665C20.3578 306.501 20.3392 306.332 20.2763 306.178C20.2134 306.024 20.1086 305.891 19.9739 305.794C19.8392 305.697 19.68 305.64 19.5144 305.629C19.3489 305.618 19.1836 305.654 19.0375 305.733C17.0335 306.869 16.3656 309.068 15.2474 310.742C13.8824 312.825 12.6917 315.111 11.196 317.019C10.4533 318.206 9.32769 319.101 8.00664 319.557C6.68559 320.013 5.24874 320.001 3.93527 319.524C3.81262 319.492 3.69864 319.432 3.60158 319.35C3.50452 319.269 3.42679 319.166 3.374 319.05C3.3212 318.935 3.29467 318.809 3.29631 318.682C3.29794 318.555 3.32771 318.429 3.38346 318.315C7.12997 310.335 8.7128 300.84 15.5959 295.641C29.3186 285.243 30.7127 270.286 31.9325 254.646C33.8638 229.889 35.5773 205.03 44.5951 181.584C47.368 173.86 48.5007 165.641 47.9205 157.453C46.6716 132.084 51.0861 107.313 54.7165 82.4537C55.4019 76.8446 55.7268 71.1971 55.6894 65.5461C56.1977 39.3328 78.1394 21.3913 99.5004 20.6777C104.409 20.5175 109.317 20.6777 114.966 20.6777C115.134 20.6785 115.299 20.6302 115.441 20.5388C115.583 20.4473 115.695 20.3166 115.764 20.1625C115.833 20.0084 115.856 19.8374 115.831 19.6704C115.805 19.5033 115.731 19.3474 115.619 19.2214C113.339 16.8476 110.595 18.2166 108.358 17.2117C108.239 17.132 108.14 17.0238 108.072 16.8968C108.004 16.7697 107.969 16.6278 107.969 16.4836C107.969 16.3394 108.004 16.1974 108.072 16.0704C108.14 15.9433 108.239 15.8351 108.358 15.7554C115.898 11.5085 123.873 8.09063 132.144 5.56136C138.694 3.37691 141.206 -0.365761 140.32 -7.44335C140.104 -10.8379 140.104 -14.2428 140.32 -17.6374C140.32 -17.7862 140.358 -17.9325 140.431 -18.0619C140.504 -18.1914 140.61 -18.2996 140.737 -18.3759C140.864 -18.4522 141.009 -18.4941 141.158 -18.4974C141.306 -18.5007 141.453 -18.4653 141.583 -18.3947C149.57 -14.2297 156.831 -10.021 165.355 -10.2977C173.879 -10.5744 181.473 -13.2103 189.62 -19.0355C189.749 -19.1247 189.9 -19.1773 190.057 -19.1876C190.214 -19.1979 190.37 -19.1655 190.51 -19.0939C190.65 -19.0222 190.768 -18.914 190.852 -18.7807C190.935 -18.6474 190.981 -18.4939 190.985 -18.3364C191.174 -14.1048 191.145 -9.86618 190.898 -5.63754C190.244 0.668215 192.96 3.60993 198.347 5.32836C204.432 7.25066 210.356 9.78462 216.267 12.304C218.576 13.2943 221.248 13.7603 223.048 15.8865C223.137 15.9887 223.202 16.1104 223.236 16.2419C223.27 16.3734 223.273 16.511 223.245 16.6439C223.217 16.7768 223.158 16.9012 223.073 17.0074C222.989 17.1135 222.881 17.1985 222.758 17.2554C220.739 18.0272 218.3 16.8768 215.933 18.7117C215.803 18.8196 215.706 18.9625 215.655 19.1235C215.603 19.2846 215.598 19.4571 215.641 19.6208C215.683 19.7845 215.772 19.9325 215.896 20.0475C216.019 20.1625 216.173 20.2397 216.339 20.2699C221.407 21.0709 226.025 20.5466 230.541 20.5903C241.911 20.7359 251.815 25.134 260.484 32.5902C270.388 41.0949 275.078 52.6434 275.427 65.983C275.948 80.1021 277.565 94.1589 280.262 108.026C282.731 121.482 282.862 135.099 282.963 148.584C283.079 163.831 284.938 178.394 290.108 192.579C297.252 212.151 296.947 233.064 299.401 253.466C300.229 260.486 300.737 267.534 301.464 274.553C301.984 279.568 304.394 284.194 308.201 287.485C319.151 297.679 322.723 303.781 327.253 317.878C327.29 318.003 327.3 318.134 327.281 318.263C327.263 318.391 327.217 318.515 327.146 318.624C327.076 318.733 326.983 318.826 326.874 318.896C326.764 318.966 326.641 319.011 326.513 319.029C324.189 319.276 322.868 317.878 312.413 306.14C312.306 306.029 312.172 305.948 312.024 305.907C311.875 305.865 311.719 305.865 311.57 305.905C311.422 305.945 311.287 306.025 311.179 306.135C311.072 306.246 310.996 306.384 310.961 306.534C310.583 308.543 311.745 310.32 312.311 312.024C315.433 321.635 318.744 331.189 322.04 340.742C322.97 343.407 324.611 346.567 321.213 348.023C317.815 349.48 316.624 345.926 315.665 343.436C313.342 337.436 311.309 331.262 309.16 325.203C308.652 323.834 308.564 322.043 306.909 321.082C306.778 321.009 306.631 320.972 306.481 320.973C306.331 320.974 306.184 321.014 306.054 321.089C305.925 321.163 305.816 321.27 305.739 321.399C305.663 321.528 305.62 321.675 305.617 321.825C305.704 327.257 307.955 331.917 309.073 336.795C309.944 340.64 311.382 344.339 312.079 348.213C312.543 350.761 313.807 354.373 310.176 355.494C306.546 356.616 306.052 352.917 305.326 350.324C303.424 343.553 301.71 336.723 299.823 329.936C299.314 328.131 299.3 326.004 297.557 324.475C297.457 324.392 297.34 324.331 297.214 324.297C297.089 324.263 296.957 324.257 296.828 324.279C296.7 324.301 296.578 324.351 296.471 324.425C296.363 324.499 296.273 324.596 296.207 324.708C294.755 327.373 296.541 330.067 296.846 332.499C297.427 337.247 298.937 341.849 299.561 346.582C299.895 349.057 301.304 352.917 297.441 353.587C294.537 354.096 293.883 350.674 293.288 348.315C292.097 343.392 291.11 338.412 290.006 333.461C289.654 330.866 288.991 328.323 288.031 325.888C287.95 325.715 287.814 325.573 287.644 325.485C287.475 325.397 287.281 325.367 287.093 325.4C286.905 325.433 286.733 325.527 286.603 325.668C286.473 325.809 286.394 325.988 286.376 326.179C285.969 332.31 287.145 337.116 287.741 341.936C288.089 344.849 288.714 348.184 285.127 348.65C281.54 349.116 282.078 345.46 281.714 343.116C278.81 324.184 273.161 305.791 274.28 286.204C274.875 275.762 269.676 266.587 266.206 257.151C260.034 240.301 251.902 223.889 251.118 205.554C249.898 176.865 244.206 149.006 239.501 120.914C238.577 116.172 238.745 111.281 239.995 106.614C240.825 104.397 240.971 101.982 240.416 99.6817C240.374 99.535 240.294 99.4021 240.185 99.2966C240.075 99.191 239.939 99.1167 239.792 99.0811C239.644 99.0455 239.489 99.05 239.344 99.0942C239.198 99.1383 239.067 99.2204 238.964 99.3321C237.657 100.788 237.744 102.769 237.511 104.575C236.553 114.434 231.166 119.72 222.308 121.439C210.305 124.004 197.851 123.504 186.091 119.982C185.317 119.575 184.434 119.423 183.568 119.549C182.702 119.674 181.898 120.071 181.27 120.681C198.173 128.21 214.335 127.963 231.122 122.138C231.259 122.089 231.405 122.075 231.549 122.097C231.692 122.12 231.828 122.178 231.943 122.266C232.059 122.354 232.15 122.47 232.21 122.603C232.269 122.735 232.295 122.881 232.284 123.026C231.442 132.536 229.089 141.594 227.056 150.696C221.131 177.229 221.799 204.2 224.065 230.908C226.548 260.136 232.705 288.971 233.707 318.402C234.418 338.791 231.964 359.062 230.149 379.319C227.517 406.841 222.349 434.058 214.713 460.624C211.809 470.818 213.348 481.012 215.41 490.857C220.812 516.706 217.341 541.914 212.506 567.312C208.904 586.142 204.548 604.783 200.279 623.423C196.445 640.171 200.162 654.005 210.908 666.326C213.251 669.055 215.359 671.978 217.211 675.063C218.663 677.481 219.781 680.758 217.356 682.826C214.277 685.549 213.842 681.122 212.099 679.826Z" fill="white"/>
<path d="M165.544 495.167C159.851 470.148 163.859 445.027 165.616 419.906C166.647 444.954 171.889 469.944 165.544 495.167Z" fill="#F2F4F6" fill-opacity="0.99"/>
<path d="M166.996 573.225C168.078 598.266 167.554 623.352 165.427 648.326C164.527 622.753 161.42 597.254 164.309 571.637C165.398 545.133 166.996 569.162 166.996 573.225Z" fill="#ECF0F2"/>
<path d="M128.863 460.216C134.671 464.935 140.131 464.308 145.577 464.585C140.727 471.444 134.352 470.265 128.863 460.216Z" fill="#E6E6E6"/>
<path d="M185.641 464.731C191.101 463.799 196.663 465.299 201.426 461.745C194.238 470.833 191.072 471.415 185.641 464.731Z" fill="#E6E6E6"/>
<path d="M165.398 217.598C163.409 217.394 161.332 216.87 161.318 214.598C161.318 211.685 163.714 211.321 165.79 211.277C167.867 211.234 169.798 211.991 169.842 214.19C169.9 217.161 167.214 216.986 165.398 217.598Z" fill="#E6E6E6"/>
</svg>
