<svg width="339" height="695" viewBox="0 0 339 695" fill="none" xmlns="http://www.w3.org/2000/svg">
<mask id="path-1-outside-1" maskUnits="userSpaceOnUse" x="0" y="-27.7207" width="339" height="723" fill="black">
<rect fill="white" y="-27.7207" width="339" height="723"/>
<path d="M154.932 680.622C151.701 681.985 151.706 684.734 151.137 687.117C150.565 689.508 149.896 691.976 146.563 691.215C143.957 690.621 142.307 688.926 143.297 686.008C143.559 685.235 143.871 684.326 142.561 683.683C138.633 684.205 140.246 691.552 134.49 689.94C130.13 688.719 133.664 684.844 132.366 682.622C128.497 683.208 129.332 689.466 124.758 687.78C122.143 686.814 123.712 683.608 123.404 681.521C120.178 680.976 119.923 687.532 116.074 683.908C113.699 681.672 114.648 679.101 116.409 676.806C122.173 669.294 127.904 661.758 133.739 654.296C137.403 649.611 138.563 644.836 137.26 638.856C131.953 614.508 124.17 590.723 119.311 566.267C113.921 539.134 110.501 512.068 113.889 484.375C117.165 457.576 111.195 431.388 106.151 405.176C100.846 377.596 93.1762 350.424 89.2788 322.623C83.782 283.411 88.097 245.3 105.964 209.043C106.613 207.73 107.155 206.338 108.01 205.153C125.955 180.331 124.101 153.285 118.308 125.728C117.855 123.577 117 120.505 117 118C126.8 119.884 137.292 121.848 146.464 116.149C150.164 113.849 153.624 111.321 154.366 106.543C151.77 108.338 149.262 110.261 146.563 111.907C136.542 118.02 126.037 117.912 115.936 112.651C106.074 107.516 102.543 98.9152 103.102 88.4469C103.39 83.0459 106.409 77.8743 104.384 71.0806C99.9558 79.7243 97.9507 87.9523 99.7975 96.1134C102.256 106.976 99.1073 117.381 98.8497 127.991C97.8194 170.445 80.888 209.226 67.2312 248.756C64.5577 256.494 62.8388 264.256 62.2698 272.468C61.1384 288.779 53.911 303.788 49.448 319.395C48.8806 321.374 47.6314 323.406 44.8704 322.407C42.3333 321.491 42.4848 319.325 43.0236 317.233C44.5068 311.482 45.995 305.736 47.7139 299.09C42.6869 300.813 43.3434 304.251 42.4209 306.689C40.6734 311.313 39.5824 316.155 37.8416 320.781C36.781 323.603 36.0133 328.259 31.8634 327.142C27.4475 325.953 29.7556 321.939 30.6984 318.96C32.3634 313.691 33.983 308.41 35.6295 303.134C36.0403 301.814 37.0857 300.502 35.3197 298.902C31.9493 300.551 32.1361 304.066 31.0435 306.77C28.4239 313.256 26.1427 319.862 23.6343 326.39C22.875 328.365 21.6157 330.267 18.9473 329.419C16.486 328.637 15.9742 326.485 16.619 324.38C18.0618 319.66 19.7032 314.99 21.3463 310.324C23.1477 305.209 25.04 300.123 27.1512 294.319C22.508 294.611 22.7942 297.846 21.8615 299.776C19.0685 305.569 16.752 311.566 13.895 317.327C12.8091 319.515 11.1811 322.538 7.70293 320.668C5.01769 319.225 6.06991 316.793 7.02784 314.505C11.7603 303.208 16.3681 291.867 21.0248 280.544C21.4574 279.494 22.2538 278.488 21.05 276.906C14.8748 280.699 15.693 291.87 5.181 292.026C4.40489 292.038 3.82574 291.37 4.04797 290.713C8.75346 276.832 15.0499 264.488 28.4812 257.292C38.0251 252.18 41.0202 244.676 42.3468 235.338C44.463 220.455 45.3738 205.386 49.5944 190.805C50.8032 186.625 51.5524 182.224 53.475 178.345C61.7445 161.676 62.7311 143.802 64.3473 125.916C66.4567 102.585 69.1538 79.2982 71.8508 56.0186C73.5562 41.2977 81.0278 30.0966 94.9422 22.4688C107.517 15.5738 121.013 10.6852 134.352 5.55531C145.536 1.25359 151.787 -4.80576 149.391 -16.707C149.176 -17.7765 149.627 -18.9651 149.972 -21.7207C162.972 -11.9286 175.931 -12.9236 188.247 -20.8017C190.917 -18.6955 190.256 -16.4746 189.97 -14.6947C188.362 -4.7149 193.047 1.08676 202.83 4.45754C212.926 7.93705 222.733 12.1539 232.711 15.9447C254.41 24.1891 266.19 38.6106 268.264 61.1738C270.992 90.836 274.811 120.413 276.867 150.141C277.211 155.116 278.68 159.872 280.662 164.403C290.731 187.427 294.512 211.719 297.083 236.225C298.021 245.166 301.226 252.125 310.013 256.752C323.558 263.885 329.537 276.312 334.89 289.097C335.262 289.983 334.653 290.982 333.601 291.149C330.131 291.703 328.636 289.81 318.211 276.622C316.797 280.638 319.206 283.512 320.336 286.381C323.858 295.329 327.781 304.135 331.515 313.008C332.653 315.716 334.266 319.255 330.989 320.816C327.048 322.694 326.028 318.589 324.856 316.14C321.373 308.865 318.122 301.492 314.762 294.118C311.095 295.37 313.08 297.107 313.545 298.454C316.311 306.427 319.139 314.381 322.011 322.322C322.944 324.901 323.988 327.901 320.711 329.153C316.494 330.763 315.715 326.917 314.74 324.403C312.001 317.338 309.558 310.172 306.94 303.065C306.275 301.258 306.4 298.902 303.019 298.147C303.016 305.022 306.785 310.815 307.967 317.116C308.593 320.449 312.896 325.471 307.661 327.046C301.629 328.859 302.332 322.124 300.96 318.87C298.305 312.583 296.42 306.007 293.431 299.757C291.181 303.584 293.603 306.846 294.297 310.194C294.943 313.318 295.953 316.367 295.804 319.588C295.75 320.734 295.541 321.975 294.16 322.39C292.376 322.928 291.162 321.961 290.478 320.586C289.701 319.022 289.095 317.362 288.606 315.693C283.727 299.021 277.281 282.849 276.251 265.136C275.515 252.507 268.934 240.736 264.739 228.649C256.059 203.646 246.289 178.887 242.786 152.614C240.684 136.855 238.918 120.981 238.509 105.125C238.289 96.5885 240.996 87.994 238.129 79.41C237.26 76.8048 237.164 73.9181 234.191 70.5265C233.321 75.6474 234.454 79.1582 235.132 82.6273C237.868 96.6273 233.694 107.392 223.235 112.867C211.627 118.946 198.817 117.22 187.495 108.061C186.589 107.328 185.868 106.269 184.424 106.421C187.495 117 200.5 121.5 222.484 118C219.535 127.287 218.349 144.955 216.945 158.059C215.783 168.918 217.46 178.624 222.484 188.262C231.546 205.651 240.993 222.911 245.693 241.992C254.681 278.488 253.171 314.84 244.61 351.208C237.238 382.525 230.925 414.054 225.785 445.758C223.6 459.233 223.957 473.037 225.65 486.532C228.906 512.485 225.408 537.865 220.529 563.264C215.718 588.312 207.988 612.71 202.13 637.524C200.465 644.577 201.874 650.584 206.967 656.235C210.487 660.141 213.571 664.34 216.534 668.594C218.58 671.53 220.987 674.272 222.965 677.263C224.482 679.56 225.679 682.059 222.908 684.264C219.903 686.657 219.142 682.034 216.701 682.348C215.236 684.021 217.213 687.383 213.918 688.072C209.642 688.969 210.552 683.687 207.435 682.913C205.456 684.931 208.709 689.24 204.3 689.979C199.301 690.816 200.317 684.718 196.823 683.596C194.921 684.844 196.562 686.261 196.384 687.515C196.067 689.733 194.646 691.351 192.183 691.383C190.14 691.41 189.039 689.991 188.384 688.166C187.483 685.656 187.911 682.287 184.224 681.392C182.769 682.388 182.831 683.456 183.321 684.587C184.774 687.923 185.294 691.074 180.229 691.69C175.567 692.258 172.191 690.304 171.905 685.68C171.473 678.748 171.198 671.737 172.499 664.873C175.984 646.492 177.823 627.319 176.702 608.824C174.725 585.266 175.21 563.108 175.614 539.465C175.806 528.237 176.712 517.03 177.9 505.849C179.175 493.859 178.385 479.728 176.702 467.816C173.976 448.548 173.441 430.411 173.323 411.013C173.099 373.929 173.038 336.846 173.584 299.761C173.68 293.246 174.7 288.553 182.245 287.017C183.688 286.724 184.877 285.651 185.321 282.704C174.794 287.205 164.449 287.546 152.858 282.373C152.858 284.335 154.582 285.644 154.994 285.741C166.02 288.329 165.587 296.662 165.811 304.684C166.373 324.65 167.882 344.639 167.309 364.573C166.343 398.132 167.727 431.829 163.71 465.214C161.114 486.797 162.006 507.807 163.513 529.135C165.228 553.405 166.25 577.629 164.285 601.935C162.53 623.631 163.338 645.502 166.91 667.064C167.868 672.842 167.59 678.615 167.616 684.399C167.624 686.483 167.22 688.471 165.466 689.933C162.915 692.06 159.745 692.569 156.841 691.351C153.928 690.129 154.942 687.465 155.72 685.247C156.194 683.894 157.097 682.595 154.932 680.622Z"/>
</mask>
<path d="M154.932 680.622C151.701 681.985 151.706 684.734 151.137 687.117C150.565 689.508 149.896 691.976 146.563 691.215C143.957 690.621 142.307 688.926 143.297 686.008C143.559 685.235 143.871 684.326 142.561 683.683C138.633 684.205 140.246 691.552 134.49 689.94C130.13 688.719 133.664 684.844 132.366 682.622C128.497 683.208 129.332 689.466 124.758 687.78C122.143 686.814 123.712 683.608 123.404 681.521C120.178 680.976 119.923 687.532 116.074 683.908C113.699 681.672 114.648 679.101 116.409 676.806C122.173 669.294 127.904 661.758 133.739 654.296C137.403 649.611 138.563 644.836 137.26 638.856C131.953 614.508 124.17 590.723 119.311 566.267C113.921 539.134 110.501 512.068 113.889 484.375C117.165 457.576 111.195 431.388 106.151 405.176C100.846 377.596 93.1762 350.424 89.2788 322.623C83.782 283.411 88.097 245.3 105.964 209.043C106.613 207.73 107.155 206.338 108.01 205.153C125.955 180.331 124.101 153.285 118.308 125.728C117.855 123.577 117 120.505 117 118C126.8 119.884 137.292 121.848 146.464 116.149C150.164 113.849 153.624 111.321 154.366 106.543C151.77 108.338 149.262 110.261 146.563 111.907C136.542 118.02 126.037 117.912 115.936 112.651C106.074 107.516 102.543 98.9152 103.102 88.4469C103.39 83.0459 106.409 77.8743 104.384 71.0806C99.9558 79.7243 97.9507 87.9523 99.7975 96.1134C102.256 106.976 99.1073 117.381 98.8497 127.991C97.8194 170.445 80.888 209.226 67.2312 248.756C64.5577 256.494 62.8388 264.256 62.2698 272.468C61.1384 288.779 53.911 303.788 49.448 319.395C48.8806 321.374 47.6314 323.406 44.8704 322.407C42.3333 321.491 42.4848 319.325 43.0236 317.233C44.5068 311.482 45.995 305.736 47.7139 299.09C42.6869 300.813 43.3434 304.251 42.4209 306.689C40.6734 311.313 39.5824 316.155 37.8416 320.781C36.781 323.603 36.0133 328.259 31.8634 327.142C27.4475 325.953 29.7556 321.939 30.6984 318.96C32.3634 313.691 33.983 308.41 35.6295 303.134C36.0403 301.814 37.0857 300.502 35.3197 298.902C31.9493 300.551 32.1361 304.066 31.0435 306.77C28.4239 313.256 26.1427 319.862 23.6343 326.39C22.875 328.365 21.6157 330.267 18.9473 329.419C16.486 328.637 15.9742 326.485 16.619 324.38C18.0618 319.66 19.7032 314.99 21.3463 310.324C23.1477 305.209 25.04 300.123 27.1512 294.319C22.508 294.611 22.7942 297.846 21.8615 299.776C19.0685 305.569 16.752 311.566 13.895 317.327C12.8091 319.515 11.1811 322.538 7.70293 320.668C5.01769 319.225 6.06991 316.793 7.02784 314.505C11.7603 303.208 16.3681 291.867 21.0248 280.544C21.4574 279.494 22.2538 278.488 21.05 276.906C14.8748 280.699 15.693 291.87 5.181 292.026C4.40489 292.038 3.82574 291.37 4.04797 290.713C8.75346 276.832 15.0499 264.488 28.4812 257.292C38.0251 252.18 41.0202 244.676 42.3468 235.338C44.463 220.455 45.3738 205.386 49.5944 190.805C50.8032 186.625 51.5524 182.224 53.475 178.345C61.7445 161.676 62.7311 143.802 64.3473 125.916C66.4567 102.585 69.1538 79.2982 71.8508 56.0186C73.5562 41.2977 81.0278 30.0966 94.9422 22.4688C107.517 15.5738 121.013 10.6852 134.352 5.55531C145.536 1.25359 151.787 -4.80576 149.391 -16.707C149.176 -17.7765 149.627 -18.9651 149.972 -21.7207C162.972 -11.9286 175.931 -12.9236 188.247 -20.8017C190.917 -18.6955 190.256 -16.4746 189.97 -14.6947C188.362 -4.7149 193.047 1.08676 202.83 4.45754C212.926 7.93705 222.733 12.1539 232.711 15.9447C254.41 24.1891 266.19 38.6106 268.264 61.1738C270.992 90.836 274.811 120.413 276.867 150.141C277.211 155.116 278.68 159.872 280.662 164.403C290.731 187.427 294.512 211.719 297.083 236.225C298.021 245.166 301.226 252.125 310.013 256.752C323.558 263.885 329.537 276.312 334.89 289.097C335.262 289.983 334.653 290.982 333.601 291.149C330.131 291.703 328.636 289.81 318.211 276.622C316.797 280.638 319.206 283.512 320.336 286.381C323.858 295.329 327.781 304.135 331.515 313.008C332.653 315.716 334.266 319.255 330.989 320.816C327.048 322.694 326.028 318.589 324.856 316.14C321.373 308.865 318.122 301.492 314.762 294.118C311.095 295.37 313.08 297.107 313.545 298.454C316.311 306.427 319.139 314.381 322.011 322.322C322.944 324.901 323.988 327.901 320.711 329.153C316.494 330.763 315.715 326.917 314.74 324.403C312.001 317.338 309.558 310.172 306.94 303.065C306.275 301.258 306.4 298.902 303.019 298.147C303.016 305.022 306.785 310.815 307.967 317.116C308.593 320.449 312.896 325.471 307.661 327.046C301.629 328.859 302.332 322.124 300.96 318.87C298.305 312.583 296.42 306.007 293.431 299.757C291.181 303.584 293.603 306.846 294.297 310.194C294.943 313.318 295.953 316.367 295.804 319.588C295.75 320.734 295.541 321.975 294.16 322.39C292.376 322.928 291.162 321.961 290.478 320.586C289.701 319.022 289.095 317.362 288.606 315.693C283.727 299.021 277.281 282.849 276.251 265.136C275.515 252.507 268.934 240.736 264.739 228.649C256.059 203.646 246.289 178.887 242.786 152.614C240.684 136.855 238.918 120.981 238.509 105.125C238.289 96.5885 240.996 87.994 238.129 79.41C237.26 76.8048 237.164 73.9181 234.191 70.5265C233.321 75.6474 234.454 79.1582 235.132 82.6273C237.868 96.6273 233.694 107.392 223.235 112.867C211.627 118.946 198.817 117.22 187.495 108.061C186.589 107.328 185.868 106.269 184.424 106.421C187.495 117 200.5 121.5 222.484 118C219.535 127.287 218.349 144.955 216.945 158.059C215.783 168.918 217.46 178.624 222.484 188.262C231.546 205.651 240.993 222.911 245.693 241.992C254.681 278.488 253.171 314.84 244.61 351.208C237.238 382.525 230.925 414.054 225.785 445.758C223.6 459.233 223.957 473.037 225.65 486.532C228.906 512.485 225.408 537.865 220.529 563.264C215.718 588.312 207.988 612.71 202.13 637.524C200.465 644.577 201.874 650.584 206.967 656.235C210.487 660.141 213.571 664.34 216.534 668.594C218.58 671.53 220.987 674.272 222.965 677.263C224.482 679.56 225.679 682.059 222.908 684.264C219.903 686.657 219.142 682.034 216.701 682.348C215.236 684.021 217.213 687.383 213.918 688.072C209.642 688.969 210.552 683.687 207.435 682.913C205.456 684.931 208.709 689.24 204.3 689.979C199.301 690.816 200.317 684.718 196.823 683.596C194.921 684.844 196.562 686.261 196.384 687.515C196.067 689.733 194.646 691.351 192.183 691.383C190.14 691.41 189.039 689.991 188.384 688.166C187.483 685.656 187.911 682.287 184.224 681.392C182.769 682.388 182.831 683.456 183.321 684.587C184.774 687.923 185.294 691.074 180.229 691.69C175.567 692.258 172.191 690.304 171.905 685.68C171.473 678.748 171.198 671.737 172.499 664.873C175.984 646.492 177.823 627.319 176.702 608.824C174.725 585.266 175.21 563.108 175.614 539.465C175.806 528.237 176.712 517.03 177.9 505.849C179.175 493.859 178.385 479.728 176.702 467.816C173.976 448.548 173.441 430.411 173.323 411.013C173.099 373.929 173.038 336.846 173.584 299.761C173.68 293.246 174.7 288.553 182.245 287.017C183.688 286.724 184.877 285.651 185.321 282.704C174.794 287.205 164.449 287.546 152.858 282.373C152.858 284.335 154.582 285.644 154.994 285.741C166.02 288.329 165.587 296.662 165.811 304.684C166.373 324.65 167.882 344.639 167.309 364.573C166.343 398.132 167.727 431.829 163.71 465.214C161.114 486.797 162.006 507.807 163.513 529.135C165.228 553.405 166.25 577.629 164.285 601.935C162.53 623.631 163.338 645.502 166.91 667.064C167.868 672.842 167.59 678.615 167.616 684.399C167.624 686.483 167.22 688.471 165.466 689.933C162.915 692.06 159.745 692.569 156.841 691.351C153.928 690.129 154.942 687.465 155.72 685.247C156.194 683.894 157.097 682.595 154.932 680.622Z" fill="white"/>
<path d="M154.932 680.622C151.701 681.985 151.706 684.734 151.137 687.117C150.565 689.508 149.896 691.976 146.563 691.215C143.957 690.621 142.307 688.926 143.297 686.008C143.559 685.235 143.871 684.326 142.561 683.683C138.633 684.205 140.246 691.552 134.49 689.94C130.13 688.719 133.664 684.844 132.366 682.622C128.497 683.208 129.332 689.466 124.758 687.78C122.143 686.814 123.712 683.608 123.404 681.521C120.178 680.976 119.923 687.532 116.074 683.908C113.699 681.672 114.648 679.101 116.409 676.806C122.173 669.294 127.904 661.758 133.739 654.296C137.403 649.611 138.563 644.836 137.26 638.856C131.953 614.508 124.17 590.723 119.311 566.267C113.921 539.134 110.501 512.068 113.889 484.375C117.165 457.576 111.195 431.388 106.151 405.176C100.846 377.596 93.1762 350.424 89.2788 322.623C83.782 283.411 88.097 245.3 105.964 209.043C106.613 207.73 107.155 206.338 108.01 205.153C125.955 180.331 124.101 153.285 118.308 125.728C117.855 123.577 117 120.505 117 118C126.8 119.884 137.292 121.848 146.464 116.149C150.164 113.849 153.624 111.321 154.366 106.543C151.77 108.338 149.262 110.261 146.563 111.907C136.542 118.02 126.037 117.912 115.936 112.651C106.074 107.516 102.543 98.9152 103.102 88.4469C103.39 83.0459 106.409 77.8743 104.384 71.0806C99.9558 79.7243 97.9507 87.9523 99.7975 96.1134C102.256 106.976 99.1073 117.381 98.8497 127.991C97.8194 170.445 80.888 209.226 67.2312 248.756C64.5577 256.494 62.8388 264.256 62.2698 272.468C61.1384 288.779 53.911 303.788 49.448 319.395C48.8806 321.374 47.6314 323.406 44.8704 322.407C42.3333 321.491 42.4848 319.325 43.0236 317.233C44.5068 311.482 45.995 305.736 47.7139 299.09C42.6869 300.813 43.3434 304.251 42.4209 306.689C40.6734 311.313 39.5824 316.155 37.8416 320.781C36.781 323.603 36.0133 328.259 31.8634 327.142C27.4475 325.953 29.7556 321.939 30.6984 318.96C32.3634 313.691 33.983 308.41 35.6295 303.134C36.0403 301.814 37.0857 300.502 35.3197 298.902C31.9493 300.551 32.1361 304.066 31.0435 306.77C28.4239 313.256 26.1427 319.862 23.6343 326.39C22.875 328.365 21.6157 330.267 18.9473 329.419C16.486 328.637 15.9742 326.485 16.619 324.38C18.0618 319.66 19.7032 314.99 21.3463 310.324C23.1477 305.209 25.04 300.123 27.1512 294.319C22.508 294.611 22.7942 297.846 21.8615 299.776C19.0685 305.569 16.752 311.566 13.895 317.327C12.8091 319.515 11.1811 322.538 7.70293 320.668C5.01769 319.225 6.06991 316.793 7.02784 314.505C11.7603 303.208 16.3681 291.867 21.0248 280.544C21.4574 279.494 22.2538 278.488 21.05 276.906C14.8748 280.699 15.693 291.87 5.181 292.026C4.40489 292.038 3.82574 291.37 4.04797 290.713C8.75346 276.832 15.0499 264.488 28.4812 257.292C38.0251 252.18 41.0202 244.676 42.3468 235.338C44.463 220.455 45.3738 205.386 49.5944 190.805C50.8032 186.625 51.5524 182.224 53.475 178.345C61.7445 161.676 62.7311 143.802 64.3473 125.916C66.4567 102.585 69.1538 79.2982 71.8508 56.0186C73.5562 41.2977 81.0278 30.0966 94.9422 22.4688C107.517 15.5738 121.013 10.6852 134.352 5.55531C145.536 1.25359 151.787 -4.80576 149.391 -16.707C149.176 -17.7765 149.627 -18.9651 149.972 -21.7207C162.972 -11.9286 175.931 -12.9236 188.247 -20.8017C190.917 -18.6955 190.256 -16.4746 189.97 -14.6947C188.362 -4.7149 193.047 1.08676 202.83 4.45754C212.926 7.93705 222.733 12.1539 232.711 15.9447C254.41 24.1891 266.19 38.6106 268.264 61.1738C270.992 90.836 274.811 120.413 276.867 150.141C277.211 155.116 278.68 159.872 280.662 164.403C290.731 187.427 294.512 211.719 297.083 236.225C298.021 245.166 301.226 252.125 310.013 256.752C323.558 263.885 329.537 276.312 334.89 289.097C335.262 289.983 334.653 290.982 333.601 291.149C330.131 291.703 328.636 289.81 318.211 276.622C316.797 280.638 319.206 283.512 320.336 286.381C323.858 295.329 327.781 304.135 331.515 313.008C332.653 315.716 334.266 319.255 330.989 320.816C327.048 322.694 326.028 318.589 324.856 316.14C321.373 308.865 318.122 301.492 314.762 294.118C311.095 295.37 313.08 297.107 313.545 298.454C316.311 306.427 319.139 314.381 322.011 322.322C322.944 324.901 323.988 327.901 320.711 329.153C316.494 330.763 315.715 326.917 314.74 324.403C312.001 317.338 309.558 310.172 306.94 303.065C306.275 301.258 306.4 298.902 303.019 298.147C303.016 305.022 306.785 310.815 307.967 317.116C308.593 320.449 312.896 325.471 307.661 327.046C301.629 328.859 302.332 322.124 300.96 318.87C298.305 312.583 296.42 306.007 293.431 299.757C291.181 303.584 293.603 306.846 294.297 310.194C294.943 313.318 295.953 316.367 295.804 319.588C295.75 320.734 295.541 321.975 294.16 322.39C292.376 322.928 291.162 321.961 290.478 320.586C289.701 319.022 289.095 317.362 288.606 315.693C283.727 299.021 277.281 282.849 276.251 265.136C275.515 252.507 268.934 240.736 264.739 228.649C256.059 203.646 246.289 178.887 242.786 152.614C240.684 136.855 238.918 120.981 238.509 105.125C238.289 96.5885 240.996 87.994 238.129 79.41C237.26 76.8048 237.164 73.9181 234.191 70.5265C233.321 75.6474 234.454 79.1582 235.132 82.6273C237.868 96.6273 233.694 107.392 223.235 112.867C211.627 118.946 198.817 117.22 187.495 108.061C186.589 107.328 185.868 106.269 184.424 106.421C187.495 117 200.5 121.5 222.484 118C219.535 127.287 218.349 144.955 216.945 158.059C215.783 168.918 217.46 178.624 222.484 188.262C231.546 205.651 240.993 222.911 245.693 241.992C254.681 278.488 253.171 314.84 244.61 351.208C237.238 382.525 230.925 414.054 225.785 445.758C223.6 459.233 223.957 473.037 225.65 486.532C228.906 512.485 225.408 537.865 220.529 563.264C215.718 588.312 207.988 612.71 202.13 637.524C200.465 644.577 201.874 650.584 206.967 656.235C210.487 660.141 213.571 664.34 216.534 668.594C218.58 671.53 220.987 674.272 222.965 677.263C224.482 679.56 225.679 682.059 222.908 684.264C219.903 686.657 219.142 682.034 216.701 682.348C215.236 684.021 217.213 687.383 213.918 688.072C209.642 688.969 210.552 683.687 207.435 682.913C205.456 684.931 208.709 689.24 204.3 689.979C199.301 690.816 200.317 684.718 196.823 683.596C194.921 684.844 196.562 686.261 196.384 687.515C196.067 689.733 194.646 691.351 192.183 691.383C190.14 691.41 189.039 689.991 188.384 688.166C187.483 685.656 187.911 682.287 184.224 681.392C182.769 682.388 182.831 683.456 183.321 684.587C184.774 687.923 185.294 691.074 180.229 691.69C175.567 692.258 172.191 690.304 171.905 685.68C171.473 678.748 171.198 671.737 172.499 664.873C175.984 646.492 177.823 627.319 176.702 608.824C174.725 585.266 175.21 563.108 175.614 539.465C175.806 528.237 176.712 517.03 177.9 505.849C179.175 493.859 178.385 479.728 176.702 467.816C173.976 448.548 173.441 430.411 173.323 411.013C173.099 373.929 173.038 336.846 173.584 299.761C173.68 293.246 174.7 288.553 182.245 287.017C183.688 286.724 184.877 285.651 185.321 282.704C174.794 287.205 164.449 287.546 152.858 282.373C152.858 284.335 154.582 285.644 154.994 285.741C166.02 288.329 165.587 296.662 165.811 304.684C166.373 324.65 167.882 344.639 167.309 364.573C166.343 398.132 167.727 431.829 163.71 465.214C161.114 486.797 162.006 507.807 163.513 529.135C165.228 553.405 166.25 577.629 164.285 601.935C162.53 623.631 163.338 645.502 166.91 667.064C167.868 672.842 167.59 678.615 167.616 684.399C167.624 686.483 167.22 688.471 165.466 689.933C162.915 692.06 159.745 692.569 156.841 691.351C153.928 690.129 154.942 687.465 155.72 685.247C156.194 683.894 157.097 682.595 154.932 680.622Z" stroke="#E6E6E6" stroke-width="6" mask="url(#path-1-outside-1)"/>
<path d="M209.737 468.724C204.894 474.816 200.784 477.273 196.959 476.039C194.68 475.304 192.503 473.259 190.333 469.893C197.328 471.822 203.665 471.753 209.737 468.724Z" fill="#E6E6E6"/>
<path d="M172.817 199.67C172.54 202.136 170.351 202.831 168.307 202.94C165.985 203.067 164.132 201.767 164.248 199.328C164.344 197.289 166.002 196.48 168.046 196.48C170.35 196.481 172.233 197.121 172.817 199.67Z" fill="#E6E6E6"/>
<path d="M148.504 470.457C140.076 478.579 136.337 478.079 127.372 467.295C134.931 470.722 141.431 472.636 148.504 470.457Z" fill="#E6E6E6"/>
</svg>
