<svg width="22" height="22" viewBox="0 0 22 22" fill="none" xmlns="http://www.w3.org/2000/svg">
<path fill-rule="evenodd" clip-rule="evenodd" d="M6.98664 1.12498C7.10833 1.13002 7.22005 1.19488 7.28478 1.29869C8.58233 3.37884 13.552 11.5806 13.552 15.1784C13.552 18.8722 10.5648 21.8738 6.87652 21.8972L6.8331 21.8973C3.12484 21.8973 0.114161 18.8867 0.114161 15.1784C0.114161 11.577 5.31292 3.36291 6.66145 1.29262C6.73032 1.18674 6.84857 1.12349 6.97484 1.12464L6.98664 1.12498ZM2.93005 15.5107C2.93726 15.1313 3.13664 14.8293 3.51603 14.8365C3.89541 14.8438 4.08287 15.1577 4.07565 15.537C4.07565 15.537 4.0556 16.6705 5.0315 17.5134C5.46956 17.8916 6.10492 18.1782 7.01196 18.2633C7.38974 18.2988 7.66761 18.5198 7.6322 18.8975C7.59668 19.2753 7.1466 19.4386 6.76882 19.4032C5.50347 19.2844 4.97307 18.9672 4.36199 18.4394C2.89029 17.1685 2.93005 15.5111 2.93005 15.5107ZM14.9597 0.000115395C15.0102 0.00171956 15.0591 0.0223454 15.0959 0.0590121C16.3394 1.29846 21.8015 6.88669 21.8015 9.40695C21.8015 11.8174 19.7384 14.0037 17.3306 14.0206L17.3022 14.0208C16.3948 14.0208 15.5513 13.7767 14.8515 13.344C14.5234 13.1412 14.2268 12.8968 13.9703 12.6169L13.9532 12.5982C13.9179 12.5591 13.8833 12.5195 13.8495 12.479L13.7892 12.4053C13.7031 12.2972 13.6224 12.1845 13.5477 12.0675C13.4763 11.9559 13.4104 11.8405 13.3504 11.7213L13.3293 11.6789C13.3113 11.6424 13.2939 11.6053 13.2769 11.568L13.2576 11.5243C13.1725 11.3299 13.1022 11.1268 13.0481 10.9159C13.0382 10.8774 13.029 10.8388 13.0201 10.7998L12.9976 10.6933C12.9928 10.6687 12.9881 10.644 12.9837 10.6192C12.9798 10.5975 12.976 10.5757 12.9725 10.5537C12.9545 10.443 12.9408 10.3304 12.9317 10.216L12.9276 10.1603C12.921 10.0631 12.9177 9.96474 12.9177 9.86528C12.9177 7.39017 14.3784 1.60863 14.7578 0.15102C14.776 0.0808951 14.8304 0.026011 14.9002 0.00699012C14.9178 0.0022922 14.9355 0 14.953 0L14.9597 0.000115395ZM14.6518 10.2727C14.6518 10.2727 15.3393 12.5368 17.9248 12.2305C18.1131 12.2082 18.248 12.0371 18.2257 11.8487C18.2034 11.6603 18.0322 11.5255 17.8439 11.5478C15.8541 11.7835 15.3085 10.0691 15.3085 10.0691C15.2523 9.88797 15.0596 9.78645 14.8785 9.8426C14.6972 9.89874 14.5957 10.0915 14.6518 10.2727Z" fill="white"/>
</svg>
