<svg width="22" height="20" viewBox="0 0 22 20" fill="none" xmlns="http://www.w3.org/2000/svg">
<path d="M4.33399 2.54501C5.36072 1.62529 6.56667 0.928001 7.87599 0.497009C8.25037 0.966033 8.72565 1.34464 9.26651 1.60468C9.80736 1.86472 10.3999 1.9995 11 1.99901C11.6001 1.9995 12.1926 1.86472 12.7335 1.60468C13.2743 1.34464 13.7496 0.966033 14.124 0.497009C15.4333 0.928001 16.6393 1.62529 17.666 2.54501C17.4475 3.10346 17.3576 3.70395 17.4029 4.3019C17.4483 4.89985 17.6278 5.47991 17.928 5.99901C18.2276 6.5191 18.6406 6.96496 19.1363 7.30343C19.6319 7.6419 20.1975 7.86427 20.791 7.95401C21.0715 9.30291 21.0715 10.6951 20.791 12.044C19.631 12.222 18.561 12.904 17.928 13.999C17.6276 14.5182 17.4481 15.0985 17.4027 15.6966C17.3573 16.2947 17.4473 16.8954 17.666 17.454C16.6392 18.3734 15.4332 19.0703 14.124 19.501C13.7495 19.0322 13.2742 18.6538 12.7333 18.3939C12.1925 18.134 11.6 17.9994 11 18C10.3999 17.9995 9.80736 18.1343 9.26651 18.3943C8.72565 18.6544 8.25037 19.033 7.87599 19.502C6.56676 19.0713 5.36081 18.3744 4.33399 17.455C4.55264 16.8964 4.64263 16.2958 4.59727 15.6976C4.55191 15.0995 4.37237 14.5192 4.07199 14C3.77228 13.4801 3.35924 13.0344 2.86357 12.6961C2.36791 12.3579 1.80236 12.1356 1.20899 12.046C0.928303 10.6968 0.928303 9.30423 1.20899 7.95501C1.80245 7.86527 2.36805 7.6429 2.86373 7.30443C3.3594 6.96596 3.77239 6.5201 4.07199 6.00001C4.37222 5.48091 4.55167 4.90085 4.59703 4.3029C4.64239 3.70495 4.55248 3.10446 4.33399 2.54601V2.54501ZM12.5 12.597C12.8439 12.4015 13.1458 12.1398 13.3882 11.8271C13.6306 11.5144 13.8088 11.1569 13.9124 10.7751C14.0161 10.3933 14.0432 9.99472 13.9922 9.60238C13.9412 9.21004 13.8131 8.83166 13.6153 8.48903C13.4175 8.14639 13.1538 7.84628 12.8395 7.60595C12.5252 7.36563 12.1665 7.18984 11.784 7.08871C11.4015 6.98759 11.0028 6.96312 10.6108 7.01672C10.2188 7.07031 9.8413 7.20092 9.49999 7.40101C8.81657 7.80166 8.31936 8.45637 8.11688 9.22225C7.91439 9.98814 8.02305 10.803 8.41916 11.4891C8.81527 12.1752 9.46667 12.6767 10.2312 12.8843C10.9957 13.0918 11.8113 12.9886 12.5 12.597V12.597Z" fill="black"/>
</svg>
