<svg width="20" height="16" viewBox="0 0 20 16" fill="none" xmlns="http://www.w3.org/2000/svg">
<path d="M0.96 0H18.24C18.4946 0 18.7388 0.0936505 18.9188 0.260349C19.0989 0.427048 19.2 0.653141 19.2 0.888889V15.1111C19.2 15.3469 19.0989 15.573 18.9188 15.7397C18.7388 15.9064 18.4946 16 18.24 16H0.96C0.705392 16 0.461212 15.9064 0.281177 15.7397C0.101143 15.573 0 15.3469 0 15.1111V0.888889C0 0.653141 0.101143 0.427048 0.281177 0.260349C0.461212 0.0936505 0.705392 0 0.96 0ZM17.28 3.76711L9.66912 10.0782L1.92 3.74756V14.2222H17.28V3.76711ZM2.41056 1.77778L9.65856 7.69956L16.8019 1.77778H2.41056Z" fill="#3EA5EC"/>
</svg>
