<svg width="24" height="14" viewBox="0 0 24 14" fill="none" xmlns="http://www.w3.org/2000/svg">
<path d="M16.5764 0.636364H7.42364C5.50299 0.636364 3.66101 1.39934 2.3029 2.75744C0.944799 4.11555 0.181824 5.95753 0.181824 7.87818L0.181824 12.5145C0.181824 12.6761 0.245996 12.831 0.360222 12.9452C0.474449 13.0595 0.629374 13.1236 0.790915 13.1236C0.940332 13.1245 1.08465 13.0693 1.19546 12.9691C3.03364 11.2836 7.18182 10.1109 12 10.1109C16.8182 10.1109 20.9664 11.2836 22.8046 12.9655C22.9154 13.0657 23.0597 13.1208 23.2091 13.12C23.3706 13.12 23.5256 13.0558 23.6398 12.9416C23.754 12.8274 23.8182 12.6725 23.8182 12.5109V7.87454C23.8172 5.95452 23.0538 4.11347 21.6958 2.75616C20.3378 1.39884 18.4964 0.636364 16.5764 0.636364ZM14.3473 6.43364H13.1018V7.67909C13.1018 7.87776 13.0229 8.0683 12.8824 8.20878C12.7419 8.34926 12.5514 8.42818 12.3527 8.42818H11.6473C11.4486 8.42818 11.2581 8.34926 11.1176 8.20878C10.9771 8.0683 10.8982 7.87776 10.8982 7.67909V6.43364H9.65455C9.55618 6.43376 9.45875 6.4145 9.36782 6.37696C9.27689 6.33943 9.19424 6.28435 9.1246 6.21488C9.05495 6.1454 8.99968 6.06289 8.96192 5.97205C8.92416 5.88121 8.90467 5.78383 8.90455 5.68546V4.97909C8.90443 4.88072 8.92369 4.78329 8.96122 4.69236C8.99876 4.60143 9.05384 4.51878 9.12331 4.44914C9.19279 4.37949 9.2753 4.32422 9.36614 4.28646C9.45698 4.2487 9.55436 4.22921 9.65273 4.22909H10.8982V2.98364C10.8982 2.78497 10.9771 2.59443 11.1176 2.45395C11.2581 2.31347 11.4486 2.23455 11.6473 2.23455H12.3527C12.5514 2.23455 12.7419 2.31347 12.8824 2.45395C13.0229 2.59443 13.1018 2.78497 13.1018 2.98364V4.22727H14.3455C14.4438 4.22715 14.5413 4.24641 14.6322 4.28395C14.7231 4.32148 14.8058 4.37656 14.8754 4.44603C14.9451 4.51551 15.0003 4.59802 15.0381 4.68886C15.0758 4.7797 15.0953 4.87708 15.0955 4.97545V5.68091C15.0959 5.77951 15.0769 5.87724 15.0396 5.96848C15.0022 6.05973 14.9472 6.14269 14.8777 6.21263C14.8082 6.28256 14.7255 6.33808 14.6345 6.37601C14.5435 6.41394 14.4459 6.43352 14.3473 6.43364Z" fill="white"/>
</svg>
