<svg width="11" height="22" viewBox="0 0 11 22" fill="none" xmlns="http://www.w3.org/2000/svg">
<path d="M11 0V2.2H9.9V17.6C9.9 20.031 7.931 22 5.5 22C3.069 22 1.1 20.031 1.1 17.6V2.2H0V0H11ZM6.6 14.3C5.9928 14.3 5.5 14.7928 5.5 15.4C5.5 16.0072 5.9928 16.5 6.6 16.5C7.2072 16.5 7.7 16.0072 7.7 15.4C7.7 14.7928 7.2072 14.3 6.6 14.3ZM4.4 11C3.7928 11 3.3 11.4928 3.3 12.1C3.3 12.7072 3.7928 13.2 4.4 13.2C5.0072 13.2 5.5 12.7072 5.5 12.1C5.5 11.4928 5.0072 11 4.4 11ZM7.7 2.2H3.3V6.6H7.7V2.2Z" fill="white"/>
</svg>
