<svg width="24" height="22" viewBox="0 0 24 22" fill="none" xmlns="http://www.w3.org/2000/svg">
<path d="M20.7248 1.53075H8.23592C7.41574 1.53154 6.62937 1.8577 6.04941 2.43766C5.46946 3.01761 5.14329 3.80398 5.14251 4.62416V5.5381H1.34887V0.674922C1.34268 0.52431 1.2785 0.381923 1.16975 0.277546C1.06099 0.173168 0.91609 0.114883 0.765351 0.114883C0.614612 0.114883 0.46971 0.173168 0.360956 0.277546C0.252201 0.381923 0.188017 0.52431 0.181828 0.674922V21.0613C0.178596 21.1399 0.191296 21.2184 0.219164 21.292C0.247032 21.3656 0.289494 21.4329 0.343997 21.4897C0.398501 21.5464 0.463922 21.5916 0.53633 21.6225C0.608738 21.6534 0.686638 21.6693 0.765351 21.6693C0.844063 21.6693 0.921964 21.6534 0.994371 21.6225C1.06678 21.5916 1.1322 21.5464 1.1867 21.4897C1.24121 21.4329 1.28367 21.3656 1.31154 21.292C1.33941 21.2184 1.35211 21.1399 1.34887 21.0613V16.1991H5.14251V17.112C5.14329 17.9322 5.46946 18.7186 6.04941 19.2985C6.62937 19.8785 7.41574 20.2047 8.23592 20.2055H20.7248C21.545 20.2047 22.3313 19.8785 22.9113 19.2985C23.4912 18.7186 23.8174 17.9322 23.8182 17.112V4.62416C23.8174 3.80398 23.4912 3.01761 22.9113 2.43766C22.3313 1.8577 21.545 1.53154 20.7248 1.53075ZM1.34887 6.70515H5.14251V15.0311H1.34887V6.70515ZM19.9468 12.7354C19.9468 12.8903 19.8852 13.0388 19.7757 13.1483C19.6662 13.2579 19.5176 13.3194 19.3627 13.3194H16.9302V15.752C16.9302 15.9069 16.8686 16.0554 16.7591 16.1649C16.6496 16.2745 16.501 16.336 16.3461 16.336H12.6136C12.4587 16.336 12.3101 16.2745 12.2006 16.1649C12.0911 16.0554 12.0296 15.9069 12.0296 15.752V13.3194H9.59796C9.44307 13.3194 9.29453 13.2579 9.185 13.1483C9.07548 13.0388 9.01395 12.8903 9.01395 12.7354V9.00182C9.01395 8.84692 9.07548 8.69838 9.185 8.58885C9.29453 8.47933 9.44307 8.4178 9.59796 8.4178H12.0305V5.98325C12.0305 5.82836 12.0921 5.67982 12.2016 5.57029C12.3111 5.46077 12.4597 5.39924 12.6146 5.39924H16.3481C16.503 5.39924 16.6516 5.46077 16.7611 5.57029C16.8706 5.67982 16.9321 5.82836 16.9321 5.98325V8.41583H19.3647C19.5196 8.41583 19.6681 8.47736 19.7777 8.58688C19.8872 8.69641 19.9487 8.84495 19.9487 8.99984L19.9468 12.7354Z" fill="white"/>
</svg>
