<svg width="20" height="21" viewBox="0 0 20 21" fill="none" xmlns="http://www.w3.org/2000/svg">
<path d="M4.66667 0.250015V2.41668H2.5V6.75002C2.5 9.14418 4.43917 11.0834 6.83333 11.0834C9.2275 11.0834 11.1667 9.14418 11.1667 6.75002V2.41668H9V0.250015H12.25C12.848 0.250015 13.3333 0.735349 13.3333 1.33335V6.75002C13.3333 9.97077 10.9912 12.6434 7.91667 13.1601V14.875C7.91667 16.9691 9.61425 18.6667 11.7083 18.6667C13.3301 18.6667 14.7146 17.6484 15.2562 16.2151C14.122 15.7092 13.3333 14.5717 13.3333 13.25C13.3333 11.4549 14.7882 10 16.5833 10C18.3784 10 19.8333 11.4549 19.8333 13.25C19.8333 14.7353 18.8367 15.9876 17.476 16.3754C16.8108 18.9397 14.4806 20.8334 11.7083 20.8334C8.41717 20.8334 5.75 18.1662 5.75 14.875V13.1601C2.6755 12.6444 0.333334 9.97077 0.333334 6.75002V1.33335C0.333334 0.735349 0.818667 0.250015 1.41667 0.250015H4.66667Z" fill="white"/>
</svg>
