<svg width="26" height="26" viewBox="0 0 26 26" fill="none" xmlns="http://www.w3.org/2000/svg">
<path d="M25.0975 7.975L23.3288 9.74125L20.6788 7.09125L18.0263 9.74125L22.445 14.1612L20.6775 15.9287L19.7938 15.045L11.8388 23H4.76751L2.11625 25.6512L0.348755 23.8837L3.00001 21.2325V14.1612L10.955 6.20625L10.0713 5.3225L11.8388 3.555L16.2588 7.97375L18.9088 5.3225L16.2588 2.67125L18.0263 0.902496L25.0975 7.97375V7.975ZM18.0263 13.2775L12.7225 7.97375L10.955 9.74125L13.6063 12.3937L11.8388 14.1612L9.1875 11.51L7.42 13.2775L10.07 15.9287L8.30376 17.6962L5.65125 15.045L5.50001 15.1962V20.5H10.8038L18.0263 13.2775Z" fill="white"/>
</svg>
