<svg width="17" height="16" viewBox="0 0 17 16" fill="none" xmlns="http://www.w3.org/2000/svg">
<path d="M3.65538 13.1282L0 16V0.820513C0 0.602899 0.0864466 0.394199 0.240323 0.240323C0.394199 0.0864466 0.602899 0 0.820513 0H15.5897C15.8074 0 16.0161 0.0864466 16.1699 0.240323C16.3238 0.394199 16.4103 0.602899 16.4103 0.820513V12.3077C16.4103 12.5253 16.3238 12.734 16.1699 12.8879C16.0161 13.0418 15.8074 13.1282 15.5897 13.1282H3.65538ZM3.08759 11.4872H14.7692V1.64103H1.64103V12.6236L3.08759 11.4872ZM7.38461 5.74359H9.02564V7.38462H7.38461V5.74359ZM4.10256 5.74359H5.74359V7.38462H4.10256V5.74359ZM10.6667 5.74359H12.3077V7.38462H10.6667V5.74359Z" fill="#3EA5EC"/>
</svg>
